<svg id="Layer_1" data-name="Layer 1" xmlns="http://www.w3.org/2000/svg" viewBox="0 0 380 380"><defs><style>.cls-1{fill:#fff;}.cls-2,.cls-3{fill:#217346;}.cls-3{fill-rule:evenodd;}</style></defs><title>favicon</title><rect class="cls-1" x="179.77" y="65.91" width="156.77" height="239.24"/><path class="cls-2" d="M226.6,103.74h40.24V242h73.72l-4.17,31.77H226.6Z"/><path class="cls-2" d="M356.14,65.91V305.15H181.63V65.91H356.14m0-16.5H181.63c-10.14,0-18.36,7.39-18.36,16.5V305.15c0,9.11,8.22,16.49,18.36,16.49H356.14c10.14,0,18.36-7.38,18.36-16.49V65.91C374.5,56.8,366.28,49.41,356.14,49.41Z"/><path class="cls-3" d="M212.75,16.41,6.5,52.54V326.78l206.25,36.14Z"/><path class="cls-1" d="M83.26,103.12,108.9,157.7l26.25-54.58h42.44l-45.14,78,49.31,92h-43.3l-30.05-64.88L78.84,273.12H36.16l48.33-90.27L40,103.12Z"/></svg>