<svg id="Layer_1" data-name="Layer 1" xmlns="http://www.w3.org/2000/svg" viewBox="0 0 815 359"><defs><style>.cls-1{fill:#d1af20;}.cls-2{fill:#fff;}.cls-3,.cls-4{fill:#217346;}.cls-4{fill-rule:evenodd;}</style></defs><title>xmlxl</title><path class="cls-1" d="M58.79,94.21,83.87,147.6l25.67-53.39h41.52l-44.15,76.31,48.23,90H112.79L83.39,197,54.47,260.52H12.71L60,172.2l-43.56-78Z"/><path class="cls-1" d="M295.66,260.52H261.34l-2-71.16c-.72-26.4.36-39.48,2-61.68L242.62,232.2H212.87L192.71,127.68A495.32,495.32,0,0,1,195,190l-1.2,70.56H160.07l9.36-166.31h40.44l18.47,107.51L245.86,94.21H286.3Z"/><path class="cls-1" d="M322.18,94.21h39.36V229.44h72.12l-4.08,31.08H322.18Z"/><rect class="cls-2" x="609.5" y="57.33" width="153.36" height="234.04"/><path class="cls-3" d="M655.32,94.34h39.36V229.57h72.11l-4.08,31.08H655.32Z"/><path class="cls-3" d="M782,57.33v234H611.33v-234H782m0-16.14H611.33c-9.92,0-18,7.23-18,16.14v234c0,8.91,8,16.14,18,16.14H782c9.92,0,18-7.23,18-16.14v-234C800,48.42,792,41.19,782,41.19Z"/><path class="cls-4" d="M641.77,8.91,440,44.26V312.54l201.77,35.34Z"/><path class="cls-2" d="M515.09,93.73l25.08,53.4,25.68-53.4h41.52l-44.16,76.32,48.24,90H569.09l-29.4-63.47L510.77,260H469l47.28-88.31-43.56-78Z"/></svg>